<svg id="Layer_1" data-name="Layer 1" xmlns="http://www.w3.org/2000/svg" xmlns:xlink="http://www.w3.org/1999/xlink" viewBox="0 0 499.36 486.88"><defs><style>.cls-1{fill:url(#radial-gradient);}.cls-2{fill:#d8a1ff;}</style><radialGradient id="radial-gradient" cx="-640.55" cy="629.55" r="0.64" gradientTransform="matrix(545.67, 0, 0, -528.31, 349703.45, 332731.12)" gradientUnits="userSpaceOnUse"><stop offset="0" stop-color="#442f55" stop-opacity="0.98"/><stop offset="1" stop-color="#12002c"/></radialGradient></defs><title>AE</title><path class="cls-1" d="M20.81,33.93H478.56V479.19H20.81Z" transform="translate(0 -13.12)"/><path class="cls-2" d="M20.81,33.93H478.56V479.19H20.81ZM0,500H499.36V13.12H0ZM353.3,247.82c10.61,0,14.35,0,15.39-.41,0-1.46.42-2.5.42-3.54,0-11.24-5.41-32-27.05-32-20,0-28.5,17.47-30.58,36Zm-42.24,28.51c.42,28.09,13.73,47,45.36,47,12.28,0,22.89-1.66,33.92-6.45,1.45-.62,2.49-.42,2.49,1.46v26a4.4,4.4,0,0,1-2.08,4.16c-11,5.41-24.76,7.9-41.82,7.9-54.93,0-75.53-40.57-75.53-85.72,0-49.1,25.39-89.26,70.12-89.26,45.36,0,61.17,38.08,61.17,69.08,0,10-.62,18.1-1.66,22a3.1,3.1,0,0,1-2.71,2.71c-4.16.62-16.43,1.45-34.74,1.45H311.06v-.41ZM199.54,255.1c-5.83-23.09-20-73.44-25.18-97.79h-.42c-4.36,24.35-15.81,65.54-24.34,97.79Zm-58.47,33.71L124.63,351c-.41,1.67-1,2.29-3.12,2.29H90.93c-2.09,0-2.5-.62-2.09-3.12l59.1-206.61c1-3.75,1.66-6.66,2.08-17.06,0-1.46.62-2.08,1.66-2.08h43.69c1.46,0,2.08.41,2.5,2.08L264,350.61c.41,1.66,0,2.7-1.67,2.7H228c-1.66,0-2.7-.62-3.12-2.08l-17.06-62.42Z" transform="translate(0 -13.12)"/></svg>