<svg id="Layer_1" data-name="Layer 1" xmlns="http://www.w3.org/2000/svg" viewBox="0 0 500 500"><defs><style>.cls-1{fill:#9e8cff;}.cls-2{fill:#0b004d;}</style></defs><title>AME</title><g id="_Group_" data-name="&lt;Group&gt;"><rect id="_Rectangle_" data-name="&lt;Rectangle&gt;" class="cls-1" width="500" height="500"/><rect id="_Rectangle_2" data-name="&lt;Rectangle&gt;" class="cls-2" x="22" y="22" width="456" height="456"/><g id="_Group_2" data-name="&lt;Group&gt;"><polygon id="_Path_" data-name="&lt;Path&gt;" class="cls-1" points="190.22 158.26 190.22 158.33 190.3 158.33 190.22 158.26"/><polygon id="_Path_2" data-name="&lt;Path&gt;" class="cls-1" points="159.78 127.63 159.78 127.67 159.81 127.67 159.78 127.63"/><polygon id="_Path_3" data-name="&lt;Path&gt;" class="cls-1" points="372.89 342.04 372.85 342 342.44 342 342.44 311.41 342.37 311.33 312 311.33 312 280.78 311.89 280.67 281.56 280.67 281.56 250.33 251.11 250.33 251.11 219.67 220.67 219.67 220.67 189 190.22 189 190.22 158.33 159.78 158.33 159.78 127.67 129.33 127.67 129.33 97 98.67 97 98.67 401 403.33 401 403.33 372.67 372.89 372.67 372.89 342.04"/><polygon id="_Path_4" data-name="&lt;Path&gt;" class="cls-1" points="220.67 188.89 220.67 189 220.78 189 220.67 188.89"/><polygon id="_Path_5" data-name="&lt;Path&gt;" class="cls-1" points="251.11 219.52 251.11 219.67 251.26 219.67 251.11 219.52"/></g><rect id="_Rectangle_3" data-name="&lt;Rectangle&gt;" class="cls-1" x="159.78" y="97" width="30.44" height="30.67"/><rect id="_Rectangle_4" data-name="&lt;Rectangle&gt;" class="cls-1" x="190.22" y="127.67" width="30.44" height="30.67"/><rect id="_Rectangle_5" data-name="&lt;Rectangle&gt;" class="cls-1" x="220.67" y="158.33" width="30.44" height="30.67"/><rect id="_Rectangle_6" data-name="&lt;Rectangle&gt;" class="cls-1" x="251.11" y="189" width="30.44" height="30.67"/><rect id="_Rectangle_7" data-name="&lt;Rectangle&gt;" class="cls-1" x="281.56" y="219.67" width="30.44" height="30.67"/><rect id="_Rectangle_8" data-name="&lt;Rectangle&gt;" class="cls-1" x="312" y="250" width="30.44" height="30.67"/><rect id="_Rectangle_9" data-name="&lt;Rectangle&gt;" class="cls-1" x="342.44" y="280.67" width="30.44" height="30.67"/><rect id="_Rectangle_10" data-name="&lt;Rectangle&gt;" class="cls-1" x="372.89" y="311.33" width="30.44" height="30.67"/><rect id="_Rectangle_11" data-name="&lt;Rectangle&gt;" class="cls-1" x="251.11" y="127.67" width="30.44" height="30.67"/><rect id="_Rectangle_12" data-name="&lt;Rectangle&gt;" class="cls-1" x="312" y="189" width="30.44" height="30.67"/><rect id="_Rectangle_13" data-name="&lt;Rectangle&gt;" class="cls-1" x="372.89" y="250" width="30.44" height="30.67"/><rect id="_Rectangle_14" data-name="&lt;Rectangle&gt;" class="cls-1" x="312" y="127.67" width="30.44" height="30.67"/><rect id="_Rectangle_15" data-name="&lt;Rectangle&gt;" class="cls-1" x="372.89" y="189" width="30.44" height="30.67"/></g></svg>